<?xml version="1.0" encoding="UTF-8" standalone="no"?>
<!-- Created with Inkscape (http://www.inkscape.org/) -->

<svg
   xmlns:dc="http://purl.org/dc/elements/1.1/"
   xmlns:cc="http://creativecommons.org/ns#"
   xmlns:rdf="http://www.w3.org/1999/02/22-rdf-syntax-ns#"
   xmlns:svg="http://www.w3.org/2000/svg"
   xmlns="http://www.w3.org/2000/svg"
   xmlns:sodipodi="http://sodipodi.sourceforge.net/DTD/sodipodi-0.dtd"
   xmlns:inkscape="http://www.inkscape.org/namespaces/inkscape"
   width="64px"
   height="64px"
   id="svg3202"
   version="1.1"
   inkscape:version="0.48.5 r10040"
   sodipodi:docname="panic-icon.svg"
   inkscape:export-filename="/homelocal/srubio/ONGOING/panic/panic-icon.png"
   inkscape:export-xdpi="306.86151"
   inkscape:export-ydpi="306.86151">
  <defs
     id="defs3204" />
  <sodipodi:namedview
     id="base"
     pagecolor="#ffffff"
     bordercolor="#666666"
     borderopacity="1.0"
     inkscape:pageopacity="0.0"
     inkscape:pageshadow="2"
     inkscape:zoom="7.7781746"
     inkscape:cx="34.990825"
     inkscape:cy="18.94088"
     inkscape:current-layer="layer1"
     showgrid="true"
     inkscape:document-units="px"
     inkscape:grid-bbox="true"
     inkscape:window-width="1920"
     inkscape:window-height="1132"
     inkscape:window-x="-2"
     inkscape:window-y="21"
     inkscape:window-maximized="1" />
  <metadata
     id="metadata3207">
    <rdf:RDF>
      <cc:Work
         rdf:about="">
        <dc:format>image/svg+xml</dc:format>
        <dc:type
           rdf:resource="http://purl.org/dc/dcmitype/StillImage" />
        <dc:title></dc:title>
      </cc:Work>
    </rdf:RDF>
  </metadata>
  <g
     id="layer1"
     inkscape:label="Layer 1"
     inkscape:groupmode="layer">
    <path
       inkscape:connector-curvature="0"
       id="path3063"
       d="M 24.889712,60.300227 C 22.0076,59.79014 19.874823,59.093147 17.210252,57.790545 14.209542,56.323633 10.975056,53.363694 9.6031085,50.829122 7.3235513,46.617796 6.8492878,42.404638 8.2361029,38.685305 L 8.9565836,36.753054 7.7077873,35.781876 C 4.3285134,33.153846 2.2848324,30.463503 1.0981534,27.080833 -0.58758662,22.275593 1.0496906,17.696656 6.170537,12.894791 10.76433,8.5871707 16.576426,5.9360383 24.100499,4.7161931 c 2.66134,-0.4314791 3.789781,-0.4833329 8.08472,-0.3715162 5.200155,0.1353717 7.406111,0.4636948 11.007229,1.6382726 3.646444,1.1893506 7.442569,3.7480072 10.277008,6.2117825 0.908071,0.789326 2.300098,2.149363 2.588824,2.379991 0.288725,0.23063 0.427675,0.786933 0.623626,1.190565 0.768365,1.582756 1.299924,3.296018 2.162468,4.823202 0.275589,0.487956 0.658481,0.974422 0.955012,1.3732 1.403642,1.887635 2.721477,2.854223 2.919348,3.150386 0.500182,0.74867 1.387594,3.473512 1.175395,5.01612 -0.220146,1.600408 -0.685177,3.165754 -1.510071,4.502679 -1.356994,2.199287 -1.453472,1.93192 -1.899837,2.613699 -0.688149,1.051077 -1.186478,1.748026 -1.584451,2.064599 -0.397974,0.316552 -1.23809,1.568578 -1.879769,3.069792 -0.747365,1.748456 -1.281093,3.129115 -1.46985,3.425211 -0.923883,1.449238 -0.241241,0.886083 -1.804055,3.634105 -1.275858,2.24344 -3.300673,4.145726 -4.201362,4.838361 -3.562797,2.739791 -7.503909,4.570773 -12.239871,5.686469 -2.908654,0.685221 -9.445323,0.862704 -12.415151,0.337116 z m -8.155245,-37.91948 c 0.08148,-0.201613 -0.04611,-0.648097 -0.283466,-0.992175 -0.577663,-0.837362 -0.391606,-1.166192 0.861624,-1.522825 1.238502,-0.352441 1.981411,-1.235865 1.603413,-1.90671 -0.357234,-0.633985 -1.098904,-1.199479 -1.779765,-1.357016 -0.499392,-0.115546 -4.584325,0.641863 -4.856624,0.900492 -0.104709,0.09941 2.158977,4.469559 2.559308,4.940899 0.363389,0.427839 1.715396,0.383145 1.89551,-0.06266 z m -1.566576,-3.431489 c -0.967417,-0.918851 0.395309,-1.905199 1.45392,-1.052368 l 0.588441,0.474054 -0.604323,0.486256 c -0.731672,0.588751 -0.90352,0.599751 -1.438038,0.09201 z m 8.220311,1.910063 c 0.159702,-0.09819 0.333484,-0.397443 0.38618,-0.664887 0.06462,-0.327915 0.460504,-0.596054 1.215722,-0.823417 0.995056,-0.299561 1.200464,-0.29197 1.842271,0.06807 0.772376,0.433354 2.123544,0.306489 1.951673,-0.183243 -0.05259,-0.149967 -1.348776,-1.185423 -2.880307,-2.300998 -2.444708,-1.780749 -2.878669,-2.010461 -3.555203,-1.881952 -0.423832,0.08054 -0.879712,0.250024 -1.013085,0.376702 -0.222446,0.211287 0.239849,4.939729 0.52927,5.413398 0.14217,0.23268 1.143157,0.230242 1.523479,-0.0033 z m -0.111194,-2.53701 c -0.420353,-0.399241 -0.395945,-1.653298 0.03219,-1.653298 0.398244,0 1.452528,1.007211 1.452528,1.387674 0,0.24218 -0.561921,0.557385 -0.993664,0.557385 -0.101171,0 -0.322084,-0.131289 -0.491032,-0.291761 z m 8.366866,0.400687 c 0.05483,-0.05207 -0.257454,-0.616155 -0.693962,-1.253517 -0.436508,-0.637361 -0.698678,-1.249037 -0.582604,-1.359288 0.116028,-0.110216 1.188495,0.259976 2.383145,0.822722 1.668147,0.785785 2.335072,0.984319 2.874553,0.855721 0.446071,-0.106356 0.653895,-0.287623 0.569433,-0.496705 -0.309007,-0.764811 -3.62877,-4.51273 -3.994198,-4.509309 -0.986094,0.0088 -1.046903,0.376503 -0.235793,1.424072 0.463261,0.598327 0.706036,1.125393 0.575174,1.248717 -0.13026,0.122762 -1.135516,-0.192884 -2.36672,-0.743154 -1.45926,-0.652177 -2.33487,-0.910156 -2.751815,-0.810761 -0.336339,0.08021 -0.611528,0.236707 -0.611528,0.347839 0,0.111133 0.76964,1.254952 1.710314,2.541821 1.563839,2.139401 1.766558,2.326351 2.367308,2.183146 0.361349,-0.08617 0.701863,-0.199229 0.756693,-0.251304 z m 7.95874,-2.143108 c -0.01179,-0.532672 -3.84006,-4.530393 -4.338449,-4.530393 -1.191974,0 -0.934837,0.519906 1.801886,3.643339 1.03418,1.180304 1.331537,1.382512 1.885239,1.281982 0.361561,-0.06564 0.65466,-0.243371 0.651324,-0.394928 z m 5.739543,-1.159475 c 0.733523,-0.317433 0.998972,-0.812681 0.782622,-1.460104 -0.223506,-0.668859 -1.461337,-0.602905 -1.783727,0.09499 -0.186729,0.404262 -0.506855,0.566951 -1.226451,0.623295 -0.843596,0.06608 -1.108821,-0.05207 -1.983864,-0.883137 -0.555553,-0.527662 -1.01009,-1.122978 -1.01009,-1.322924 0,-0.674927 0.712133,-0.982696 1.912289,-0.826451 0.625477,0.08142 1.203058,0.04689 1.283511,-0.07679 0.24683,-0.379316 -0.790982,-0.735497 -2.143001,-0.735497 -2.478089,0 -3.373626,0.953218 -2.359597,2.51158 0.498896,0.766709 1.952851,1.883397 2.842681,2.183278 0.709149,0.238992 3.04152,0.170467 3.685627,-0.108231 z"
       style="fill:#fc9a9a"
       sodipodi:nodetypes="sssscssssssssaasssssssssssssssssssssscsscssssssssccssssscssssssssssssscsssssssssssssssss" />
    <path
       inkscape:connector-curvature="0"
       id="path3059"
       d="m 25.401685,59.685008 c -2.431538,-0.494465 -4.64498,-1.144932 -5.189827,-1.525164 -0.561768,-0.392027 -0.173888,-0.422698 0.743143,-0.0588 1.257888,0.499187 4.875986,0.931328 5.617184,0.670901 0.515911,-0.181268 0.338851,-0.259822 -1.134973,-0.50359 -2.948014,-0.487618 -5.780743,-1.467799 -9.08711,-3.144366 C 13.754014,53.807596 12.914653,53.238252 11.67371,51.951957 8.8434684,49.018298 7.5271778,45.244463 8.0755506,41.63601 8.234287,40.591508 8.6802512,39.06792 9.066586,38.250273 L 9.7690023,36.763635 8.6259634,35.89473 C 6.5688401,34.330983 3.9160605,31.641336 3.0491065,30.240388 0.2628948,25.738051 0.18542503,21.619554 2.8082545,17.437232 3.879118,15.729663 7.4480101,12.144676 9.6285072,10.586225 17.878202,4.6899904 31.929226,2.9105099 42.936467,6.3679587 c 4.774179,1.4995912 7.758463,3.314388 11.391218,6.9271893 2.298364,2.285728 3.46488,4.163963 4.116582,6.628167 0.408289,1.54381 0.584607,1.80639 2.285252,3.403301 2.464729,2.31438 3.057143,3.718218 2.857844,6.772156 -0.175432,2.688257 -0.979963,4.219579 -3.8993,7.421818 -1.948442,2.137239 -2.124735,2.428106 -3.171816,5.23287 -2.356107,6.311176 -4.407877,9.218356 -8.579689,12.156714 -2.452915,1.72766 -4.768495,2.86519 -7.761753,3.812935 -4.75471,1.505483 -10.318466,1.867731 -14.77312,0.961867 z m -4.223707,-9.233205 c -0.64077,-0.414367 -1.932771,-1.034738 -1.729828,-0.830589 0.323239,0.325135 1.587941,1.050029 1.857812,1.064847 0.14079,0.0077 0.08325,-0.09764 -0.127984,-0.234258 z m -4.095723,-2.517272 c 0,-0.05417 -0.419869,-0.573901 -0.933056,-1.154874 -0.513175,-0.580973 -1.082478,-1.393258 -1.265116,-1.805076 -0.294986,-0.665119 -1.129596,-1.585911 -1.129596,-1.246225 0,0.554461 1.227324,2.650007 1.987212,3.392996 0.821615,0.803326 1.340556,1.118123 1.340556,0.813179 z m 7.807457,-11.191197 c 1.291882,-0.286994 1.709039,-0.522201 2.625671,-1.48046 1.118182,-1.168951 1.512677,-2.017247 1.245577,-2.678362 -0.274563,-0.679583 -3.794262,-2.046571 -6.854731,-2.662253 -3.303479,-0.664579 -6.565817,-1.596083 -8.637656,-2.466367 -0.761562,-0.319883 -1.4424,-0.526769 -1.512971,-0.459735 -0.07052,0.06708 0.17785,0.806957 0.552051,1.644286 0.37419,0.83733 0.680024,1.730672 0.679623,1.985197 -4.47e-4,0.254525 -0.591246,1.0558 -1.312976,1.780617 -0.751315,0.754528 -1.216358,1.408924 -1.087926,1.530902 0.385261,0.3659 4.756702,1.960274 6.106045,2.227045 5.186761,1.025404 5.946743,1.079101 8.197293,0.57913 z M 17.172791,22.758585 c 0.17963,-0.170611 0.125897,-0.522026 -0.169892,-1.111173 -0.23794,-0.473901 -0.432604,-0.911172 -0.432604,-0.971697 0,-0.06057 0.427746,-0.279812 0.950567,-0.487294 1.984381,-0.787506 2.356438,-1.711982 1.209849,-3.006221 -1.017696,-1.14875 -2.059128,-1.193544 -5.808169,-0.249814 -0.562782,0.14166 -0.95993,0.390658 -0.95993,0.601825 0,0.459888 2.224904,4.703496 2.776826,5.296307 0.311706,0.334788 0.638412,0.41376 1.293827,0.312734 0.482246,-0.07436 0.995032,-0.247431 1.139526,-0.384667 z M 15.19928,18.496154 c -0.09162,-0.226789 7.9e-4,-0.44399 0.223412,-0.525125 0.530544,-0.193371 1.211395,0.09587 1.084837,0.460826 -0.15968,0.460528 -1.128912,0.508169 -1.308249,0.06432 z M 3.7711791,21.0454 c 0.3519746,-0.261498 0.7751694,-0.477884 0.9404383,-0.480863 0.197377,-0.0033 0.3291343,-0.673051 0.3839763,-1.951038 0.045868,-1.070098 0.015211,-1.945369 -0.068155,-1.945061 -0.083366,3.42e-4 -0.5629353,0.848495 -1.0656517,1.884855 -1.4677398,3.025749 -1.5014043,3.465933 -0.1906322,2.492107 z m 19.5463679,0.256224 c 0.369768,-0.133518 0.672088,-0.461621 0.720622,-0.782066 0.116264,-0.767802 1.472574,-1.125064 2.687329,-0.70785 1.003215,0.344563 2.527213,0.171295 2.721418,-0.309402 0.07665,-0.189675 -1.105696,-1.207609 -2.983071,-2.568309 -2.930999,-2.124342 -3.167311,-2.246916 -4.105178,-2.129152 -1.650071,0.207172 -1.718355,0.388694 -1.295632,3.444529 0.203485,1.47095 0.424162,2.811218 0.490406,2.978375 0.143207,0.361387 0.882236,0.392334 1.764106,0.07392 z m 0.08136,-3.514742 c -0.07582,-0.187512 -0.06992,-0.405387 0.01308,-0.484161 0.180526,-0.17146 0.837864,0.308465 0.837864,0.611722 0,0.347829 -0.701332,0.242686 -0.850917,-0.127561 z m 8.390236,1.230392 c 0.44916,-0.311939 0.439998,-0.367677 -0.209581,-1.275637 -0.3736,-0.522201 -0.572675,-0.983205 -0.442392,-1.024444 0.130273,-0.04126 1.039181,0.308761 2.019792,0.777796 1.596031,0.763399 1.881702,0.826904 2.725085,0.605719 0.607531,-0.159324 0.913873,-0.372222 0.862533,-0.599431 -0.04375,-0.19379 -0.94334,-1.390312 -1.999004,-2.658933 -1.726538,-2.074837 -2.003814,-2.30658 -2.759835,-2.30658 -1.09744,0 -1.312681,0.554649 -0.58035,1.495454 0.312932,0.402033 0.506925,0.7899 0.431071,0.861943 -0.07582,0.07204 -0.905264,-0.210085 -1.843155,-0.626945 -1.870441,-0.83135 -2.588576,-0.92547 -3.298597,-0.432362 -0.438878,0.304812 -0.350926,0.490901 1.378879,2.917595 1.59162,2.232849 1.944527,2.592019 2.546763,2.592019 0.384519,0 0.910477,-0.14679 1.168791,-0.326194 z m 7.674956,-1.855981 c 0.361149,-0.130407 0.65663,-0.353985 0.65663,-0.496826 0,-0.142841 -0.93176,-1.294349 -2.070565,-2.55891 -2.070554,-2.299177 -2.527626,-2.567284 -3.668106,-2.151614 -0.749359,0.273115 -0.561332,0.573878 2.60565,4.168022 1.175488,1.334034 1.399702,1.428132 2.476391,1.039328 z m 6.103286,-1.4844 c 0.781466,-0.338186 1.070238,-0.962043 0.843135,-1.821448 -0.132666,-0.502056 -0.30923,-0.590284 -1.181361,-0.590284 -0.858216,0 -1.065062,0.09907 -1.2687,0.607826 -0.34049,0.850602 -1.301457,0.788476 -2.435771,-0.157471 -0.607977,-0.507009 -0.891763,-0.937804 -0.840858,-1.276443 0.0678,-0.451216 0.221725,-0.502353 1.312575,-0.436201 1.138323,0.06906 1.964054,-0.219441 1.964054,-0.686147 0,-0.292886 -1.974183,-0.96916 -2.829204,-0.96916 -0.890972,0 -2.565169,0.611799 -2.853517,1.042748 -0.108363,0.161972 -0.198803,0.600048 -0.20095,0.973517 -0.0059,0.923496 1.998084,2.942044 3.409755,3.435505 1.166787,0.407858 2.981255,0.353412 4.080842,-0.122442 z"
       style="fill:#fb5657" />
    <path
       inkscape:connector-curvature="0"
       id="path3057"
       d="m 25.401685,59.685008 c -2.431538,-0.494465 -4.64498,-1.144932 -5.189827,-1.525164 -0.561768,-0.392027 -0.173888,-0.422698 0.743143,-0.0588 1.257888,0.499187 4.875986,0.931328 5.617184,0.670901 0.515911,-0.181268 0.338851,-0.259822 -1.134973,-0.50359 -2.948014,-0.487613 -5.780743,-1.467794 -9.08711,-3.144361 C 13.754014,53.807601 12.914653,53.238257 11.67371,51.951962 8.8389876,49.013658 7.5270127,45.245395 8.0775434,41.623018 c 0.3493097,-2.298405 1.3633265,-4.595067 1.9365436,-4.38614 0.212117,0.07734 0.635677,0.854132 0.941253,1.726258 0.305563,0.872138 1.03734,2.257607 1.626157,3.078839 0.58883,0.821232 1.330465,2.106016 1.648079,2.855095 0.545306,1.286052 2.412705,3.391804 2.735768,3.08495 0.08172,-0.07756 -0.183605,-0.50809 -0.589466,-0.956736 -0.931135,-1.029244 -1.597458,-1.957285 -1.597458,-2.224883 0,-0.113781 0.615962,0.127858 1.36881,0.536974 0.752847,0.409104 1.462469,0.66331 1.57694,0.564887 0.114495,-0.09841 0.132713,-0.05362 0.04056,0.09952 -0.09209,0.153135 -0.02417,0.334667 0.150943,0.4034 0.175185,0.06874 0.750478,0.300477 1.278451,0.514997 0.527962,0.214532 0.95993,0.335341 0.95993,0.268483 0,-0.06686 -0.431968,-0.305971 -0.95993,-0.531348 -0.837569,-0.357548 -0.887459,-0.421991 -0.391392,-0.50552 l 0.568547,-0.09576 -0.610089,-0.917923 c -0.335537,-0.504858 -0.752849,-1.400285 -0.927338,-1.989853 -0.646006,-2.182705 -2.677695,-4.521314 -5.103289,-5.874224 -0.919767,-0.513011 -0.701225,-0.911624 0.238057,-0.434171 0.287322,0.146051 1.013664,0.325741 1.614084,0.399307 0.600408,0.07359 1.494836,0.226315 1.987601,0.339423 3.716816,0.853172 10.218086,0.908247 13.055096,0.110602 0.774343,-0.217708 2.103699,-0.761876 2.954121,-1.209254 1.769684,-0.930974 4.213378,-3.248808 4.213378,-3.996375 0,-0.518681 -1.319392,-1.465919 -2.047856,-1.470221 -0.211184,-0.0011 -0.823762,-0.11825 -1.361286,-0.260021 -0.807785,-0.213053 -0.924449,-0.318249 -0.672607,-0.60648 0.379743,-0.434579 1.102982,-0.43758 2.39648,-0.0099 0.950791,0.314333 1.149006,0.282581 3.839742,-0.615252 3.11583,-1.039669 5.07585,-1.902451 5.995795,-2.639272 1.155091,-0.925161 0.42257,-0.964162 -2.134675,-0.113649 -6.198325,2.0615 -9.21651,2.543542 -15.230948,2.432553 -7.053122,-0.130154 -11.457838,-1.070396 -16.060462,-3.42829 -2.7388941,-1.403121 -3.7440085,-1.443776 -2.2179246,-0.0897 0.8800306,0.78082 1.9572026,2.543794 1.8516576,3.030537 -0.05376,0.24785 -0.430918,-0.113274 -1.044073,-0.999621 -0.5279623,-0.763211 -0.95993,-1.481828 -0.95993,-1.596922 0,-0.115093 -0.122631,-0.209257 -0.2725121,-0.209257 -0.1498692,0 -0.563289,-0.328225 -0.918683,-0.729397 -0.4516595,-0.509811 -0.8757268,-0.729395 -1.4086294,-0.729395 -0.637976,0 -0.7367293,-0.07701 -0.604901,-0.471463 0.1913516,-0.572642 -0.6576205,-1.090453 -1.4140059,-0.86244 -0.8974467,0.270545 -1.9952064,1.328419 -2.3056634,2.221916 -0.2218559,0.638486 -0.3625279,0.782893 -0.5251318,0.539081 -0.301684,-0.45232 -0.2821692,-3.162312 0.026059,-3.615283 0.2138496,-0.3143 0.2486934,-0.307879 0.2520657,0.04644 0.00707,0.693077 0.361278,0.67826 1.5244449,-0.06366 1.4180743,-0.904585 1.8267772,-0.893939 2.9956158,0.07812 1.0555829,0.877814 1.0555357,0.878532 0.1139065,-1.574287 -0.6344496,-1.652736 -0.6646357,-2.52879 -0.15159,-4.399611 0.5756818,-2.099253 1.31892,-3.29529 3.0521796,-4.911674 C 13.814776,7.4219157 23.955169,4.6442928 32.697192,5.0850395 c 7.071906,0.3565559 11.52235,1.6130848 17.809358,5.0282575 1.767277,0.960002 5.676247,4.865457 6.683944,6.677936 0.446259,0.802643 1.010456,2.21214 1.253783,3.132226 0.408291,1.54381 0.584608,1.806389 2.285254,3.4033 2.464729,2.314381 3.057143,3.718218 2.857844,6.772156 -0.175434,2.688258 -0.979964,4.219579 -3.899301,7.421808 -1.948441,2.13725 -2.124735,2.428116 -3.171815,5.23288 -2.356107,6.311176 -4.407877,9.218356 -8.57969,12.156715 -2.452914,1.72766 -4.768494,2.865189 -7.761752,3.812934 -4.754711,1.505483 -10.318468,1.867732 -14.77312,0.961867 z m -4.223707,-9.233205 c -0.64077,-0.414367 -1.932771,-1.034738 -1.729828,-0.830589 0.323239,0.325135 1.587941,1.050029 1.857812,1.064847 0.14079,0.0077 0.08325,-0.09764 -0.127984,-0.234258 z m 1.46656,-2.565596 c -0.08501,-0.08076 -0.305846,-0.08947 -0.490629,-0.0192 -0.204205,0.07767 -0.14355,0.135228 0.154656,0.14689 0.269847,0.01103 0.421037,-0.04689 0.335973,-0.127693 z m -1.21058,-0.339378 c -0.211184,-0.129623 -0.556768,-0.229668 -0.767953,-0.222321 -0.253174,0.0088 -0.209581,0.08451 0.127996,0.222321 0.703714,0.287215 1.107877,0.287215 0.639957,0 z M 51.516451,31.588731 c 2.260645,-1.421004 4.055761,-3.473402 3.809792,-4.355811 -0.153642,-0.551239 -2.43827,-2.054273 -3.122504,-2.054273 -0.25631,0 -0.640947,0.136762 -0.854738,0.303919 -0.455845,0.35639 -2.011207,2.467162 -2.463409,3.343073 -0.172579,0.334303 -0.458616,0.804727 -0.635629,1.045384 -0.280259,0.381015 -0.182556,0.561643 0.756173,1.398013 0.59291,0.528247 1.170926,0.960454 1.284489,0.960454 0.113552,0 0.665179,-0.28834 1.225826,-0.640759 z m -3.128317,-4.025468 c 0.444915,0.01765 0.947892,-0.804574 0.947892,-1.549482 0,-0.572168 -1.002309,-0.396075 -1.676107,0.294463 -0.752141,0.770836 -0.869254,1.693956 -0.179761,1.416846 0.246382,-0.09907 0.654967,-0.171845 0.907976,-0.161827 z m 6.579508,-2.864639 c 0,-0.293371 -1.357467,-0.978769 -1.938502,-0.978769 -0.36465,0 -0.377325,0.05804 -0.08561,0.391894 0.570151,0.652498 2.024095,1.074059 2.024095,0.586875 z M 17.009785,23.325578 c 0.766492,-0.195168 0.950131,-0.887153 0.46963,-1.769693 -0.511454,-0.939405 -0.518045,-0.915541 0.306789,-1.109982 1.889898,-0.445524 2.465273,-2.262957 1.12073,-3.540007 -0.972935,-0.924102 -1.868967,-1.105104 -3.696158,-0.746651 -2.584129,0.506954 -3.368625,0.824697 -3.454867,1.399314 -0.07794,0.519013 1.599484,3.958821 2.559873,5.249551 0.508201,0.682992 1.383585,0.851142 2.694003,0.517468 z m -1.463424,-4.954634 c 0,-0.133728 0.115203,-0.243139 0.255981,-0.243139 0.140789,0 0.25598,0.109444 0.25598,0.243139 0,0.133716 -0.115203,0.243128 -0.25598,0.243128 -0.14079,0 -0.255981,-0.109445 -0.255981,-0.243128 z m 8.056751,3.16314 c 0.3607,-0.130264 0.760559,-0.498459 0.888556,-0.818221 0.310717,-0.77623 1.314038,-0.992118 2.247096,-0.483498 0.684044,0.372884 0.83942,0.373303 2.132199,0.0055 0.766903,-0.218017 1.883954,-0.512724 2.48231,-0.654914 0.878946,-0.208883 1.087926,-0.364147 1.087926,-0.808368 0,-0.302407 -0.136309,-0.679308 -0.302911,-0.837539 -0.618861,-0.587802 0.03738,-0.551758 1.336207,0.07337 1.410222,0.678744 2.490529,0.689413 3.434329,0.03398 0.396287,-0.275223 0.415577,-0.402541 0.137724,-0.908656 l -0.323133,-0.588585 0.664531,0.580354 c 0.552877,0.482859 0.844455,0.55744 1.735511,0.443924 0.953845,-0.121514 1.493657,-0.460352 1.50526,-0.944843 0.0024,-0.09003 -0.312863,-0.524937 -0.700035,-0.966468 l -0.703949,-0.802785 0.767942,0.492071 c 1.804173,1.156032 3.683623,1.39863 5.438874,0.702057 1.096557,-0.435175 1.335369,-0.722269 1.340733,-1.611828 0.0059,-1.04812 -0.249542,-1.39542 -1.145762,-1.555108 -1.024476,-0.182547 -1.9221,0.226161 -1.9221,0.875161 0,0.858126 -1.720088,0.381225 -2.452077,-0.679848 -0.532619,-0.772092 -0.178935,-1.136746 0.770123,-0.794025 0.895347,0.323325 2.032538,-0.14144 2.143378,-0.875989 0.157049,-1.040739 -3.090408,-1.6912733 -4.885337,-0.978647 -1.139784,0.452519 -1.551648,1.005137 -1.51118,2.027629 l 0.03455,0.873682 -0.999383,-1.028174 c -0.753332,-0.77506 -1.129868,-0.992879 -1.529433,-0.88478 -0.291532,0.07889 -0.760442,0.205484 -1.042022,0.281356 -0.512904,0.138207 -0.734737,1.161372 -0.306318,1.412863 0.113081,0.06642 0.754252,0.811369 1.424749,1.655495 l 1.219105,1.534774 -1.104776,-1.20195 c -2.698801,-2.936217 -2.868456,-3.061482 -3.802021,-2.807177 -1.231663,0.335505 -1.41733,0.599298 -0.924554,1.313623 0.627905,0.9102 0.541238,0.937573 -0.849374,0.268261 -0.699268,-0.336554 -1.555715,-0.61192 -1.90321,-0.61192 -0.947312,0 -1.945033,0.427441 -1.945033,0.833292 0,0.197485 0.531499,1.081229 1.181113,1.96387 0.649626,0.88263 1.139184,1.640193 1.087926,1.683473 -0.05129,0.04325 -1.072325,-0.627728 -2.269039,-1.491118 -2.605343,-1.879668 -2.925575,-2.014146 -4.090098,-1.717575 -1.609898,0.410009 -1.630945,0.480741 -1.180676,3.968088 0.238811,1.849659 0.53342,3.19808 0.724725,3.317068 0.333839,0.207658 0.97856,0.119507 2.107519,-0.288175 z M 53.761837,16.66877 c -0.184194,-0.668992 -0.330089,-0.608809 -0.330089,0.136155 0,0.342201 0.104353,0.560914 0.231948,0.486024 0.127573,-0.07491 0.171731,-0.354867 0.09811,-0.622179 z M 40.516734,7.4485708 c -0.23886,-0.3670921 -2.62652,-1.0313398 -3.395535,-0.9446446 -0.546604,0.061673 -0.265708,0.202583 1.207585,0.6059507 2.246188,0.6149866 2.381352,0.6359157 2.18795,0.3386939 z M 6.7819586,33.124918 C 5.0933298,31.762652 4.6442175,31.013826 5.5158407,31.013826 c 0.3212578,0 0.4894745,-0.153344 0.4667406,-0.425477 -0.029478,-0.352683 0.1573804,-0.416971 1.0919702,-0.37572 1.3716042,0.06057 1.710278,0.323833 1.3161844,1.023254 -0.4013335,0.712251 -0.1328778,1.004431 0.7659957,0.833688 0.41691,-0.07921 0.7580246,-0.05549 0.7580246,0.05274 0,0.395048 -1.0762167,2.295338 -1.2999594,2.295338 -0.1266871,0 -0.9514633,-0.581746 -1.8328382,-1.292761 z M 2.7472456,19.128782 c 0,-0.347387 0.7240653,-1.730374 0.9059483,-1.730374 0.1292696,0 -0.5740664,1.71089 -0.7861354,1.912315 -0.065914,0.06255 -0.1198129,-0.0193 -0.1198129,-0.181941 z"
       style="fill:#f63133" />
    <path
       inkscape:connector-curvature="0"
       id="path3055"
       d="m 25.401685,59.685008 c -2.431538,-0.494465 -4.64498,-1.144932 -5.189827,-1.525164 -0.561768,-0.392027 -0.173888,-0.422698 0.743143,-0.0588 1.257888,0.499187 4.875986,0.931328 5.617184,0.670901 0.515911,-0.181268 0.338851,-0.259822 -1.134973,-0.50359 -2.948014,-0.487613 -5.780743,-1.467794 -9.08711,-3.144361 C 13.754014,53.807601 12.914653,53.238257 11.67371,51.951962 8.8389876,49.013658 7.5270127,45.245395 8.0775434,41.623018 c 0.3493097,-2.298405 1.3633265,-4.595067 1.9365436,-4.38614 0.212117,0.07734 0.635677,0.854132 0.941253,1.726258 0.305563,0.872138 1.03734,2.257607 1.626157,3.078839 0.58883,0.821232 1.330465,2.106016 1.648079,2.855095 0.539009,1.271213 2.411361,3.393073 2.728386,3.091967 0.07759,-0.0737 -0.270814,-0.602266 -0.77425,-1.1746 -0.978005,-1.111834 -1.507488,-1.926073 -1.34986,-2.075786 0.0533,-0.05064 0.840187,0.338903 1.748623,0.865639 3.697043,2.143605 7.850401,3.160635 12.884463,3.154986 4.600879,-0.0055 9.61473,-1.22097 12.373032,-3.000318 1.61176,-1.039736 1.780696,-1.356166 1.364116,-2.555071 -0.425777,-1.225339 -1.320158,-2.017523 -2.901886,-2.570285 -1.405245,-0.491089 -1.323223,-0.88253 0.286909,-1.369317 0.516701,-0.156223 2.030983,-0.839094 3.365066,-1.517496 1.911582,-0.972073 2.827683,-1.635846 4.322932,-3.13226 1.04353,-1.044347 2.045909,-1.898799 2.227497,-1.898799 0.181589,0 1.310938,-0.91286 2.509656,-2.028566 2.955336,-2.75067 3.143445,-3.614125 1.059284,-4.862258 -1.227537,-0.735122 -1.552603,-1.307854 -0.577805,-1.018024 1.761878,0.523845 2.217464,-0.02416 0.787409,-0.947116 -1.309675,-0.845283 -2.072569,-0.830423 -2.178303,0.04237 -0.05801,0.478733 -0.244567,0.690683 -0.65696,0.74631 -0.683727,0.09223 -0.750408,-0.34078 -0.17304,-1.123707 0.256947,-0.348425 0.346397,-0.790804 0.246913,-1.221047 -0.119789,-0.51802 0.136875,-1.201343 1.105506,-2.943114 l 1.261532,-2.268451 -0.729867,-2.050842 c -0.774226,-2.17549 -1.430007,-3.349317 -2.278743,-4.078845 -0.744465,-0.63991 -0.641867,-0.930303 0.18516,-0.524099 1.207197,0.592931 5.259561,4.795851 6.125136,6.352713 0.446259,0.802643 1.010456,2.212141 1.253785,3.132226 0.408289,1.54381 0.584607,1.80639 2.285252,3.403301 2.464729,2.31438 3.057143,3.718218 2.857844,6.772156 -0.175432,2.688257 -0.979963,4.219579 -3.8993,7.421818 -1.948442,2.137239 -2.124735,2.428106 -3.171816,5.23287 -2.356107,6.311175 -4.407877,9.218355 -8.579689,12.156714 -2.452915,1.727659 -4.768495,2.86519 -7.761753,3.812935 -4.75471,1.505483 -10.318466,1.867731 -14.77312,0.961867 z m -4.223707,-9.233205 c -0.64077,-0.414367 -1.932771,-1.034738 -1.729828,-0.830589 0.323239,0.325135 1.587941,1.050029 1.857812,1.064847 0.14079,0.0077 0.08325,-0.09764 -0.127984,-0.234258 z M 15.926989,24.498181 C 11.86709,23.164766 9.3041129,20.298793 9.3351479,17.127047 9.3640369,14.172989 11.515823,11.5611 15.414426,9.7478257 c 1.303345,-0.606205 2.557365,-1.102181 2.786719,-1.102181 0.775736,0 0.423113,0.436576 -0.944942,1.1699 -0.749075,0.4015253 -2.132777,1.5208293 -3.074914,2.4873303 -1.430053,1.467055 -1.799797,2.02882 -2.238746,3.401435 -0.562687,1.759534 -0.454961,2.788899 0.469759,4.488701 0.620207,1.140034 2.396292,3.283716 2.720639,3.283716 0.326894,0 2.198161,0.900977 2.576466,1.240521 0.379177,0.340326 -0.353319,0.250288 -1.782418,-0.219067 z"
       style="fill:#5c5958" />
    <path
       inkscape:connector-curvature="0"
       id="path3053"
       d="m 34.61705,56.78586 c 0.08702,-0.133716 0.299833,-0.243128 0.472943,-0.243128 0.173111,0 0.766622,-0.218823 1.318932,-0.486267 0.552299,-0.267445 1.12804,-0.486269 1.279418,-0.486269 0.411215,0 4.736163,-3.908356 4.736163,-4.279972 0,-0.519906 -1.848461,-0.87174 -3.118424,-0.59355 -1.774447,0.388706 -3.269991,0.321351 -3.462827,-0.155948 -0.105063,-0.260096 0.0024,-0.504515 0.294986,-0.668616 0.748981,-0.420579 3.219606,-2.158973 3.150285,-2.21663 -0.03514,-0.02924 -1.15812,0.221636 -2.495636,0.557395 -2.023682,0.508014 -3.119225,0.621452 -6.527543,0.675866 l -4.095722,0.06543 3.711747,-0.18 c 5.201204,-0.252208 9.263192,-1.276376 11.958598,-3.015147 1.61176,-1.039735 1.780696,-1.356164 1.364116,-2.55507 -0.425777,-1.225339 -1.320158,-2.017522 -2.901886,-2.570284 -1.405245,-0.491089 -1.323223,-0.882531 0.286909,-1.369317 0.516701,-0.156224 2.030983,-0.839094 3.365066,-1.517497 1.911582,-0.972072 2.827683,-1.635846 4.322932,-3.132259 1.04353,-1.044348 2.045909,-1.8988 2.227497,-1.8988 0.181589,0 1.310938,-0.912859 2.509656,-2.028567 2.955336,-2.75067 3.143445,-3.614124 1.059284,-4.862257 -1.227537,-0.735122 -1.552603,-1.307853 -0.577805,-1.018023 1.761878,0.523845 2.217464,-0.02416 0.787409,-0.947116 -1.309675,-0.845285 -2.072569,-0.830423 -2.178303,0.04237 -0.05801,0.478732 -0.244567,0.690682 -0.65696,0.746309 -0.683727,0.09223 -0.750408,-0.340779 -0.17304,-1.123705 0.256947,-0.348425 0.346397,-0.790805 0.246913,-1.221048 -0.119789,-0.51802 0.136875,-1.201344 1.105506,-2.943114 l 1.261532,-2.268452 -0.729867,-2.050841 c -0.774226,-2.175489 -1.430007,-3.349317 -2.278743,-4.078846 -0.28612,-0.245941 -0.520227,-0.53619 -0.520227,-0.644984 0,-0.5011073 0.928399,0.270048 3.170954,2.633877 4.390013,4.627426 5.339271,7.476828 4.113905,12.348817 -0.151143,0.60093 -0.123539,0.675865 0.156779,0.425478 0.525592,-0.469498 0.69941,-0.378346 1.256555,0.658929 1.08762,2.024893 0.486114,4.011479 -2.172821,7.176153 -0.783729,0.932785 -1.474095,1.917478 -1.534149,2.188188 -0.06001,0.27071 -0.152133,2.188056 -0.204617,4.260764 -0.0823,3.251479 -0.180173,3.982839 -0.713135,5.330321 -0.584856,1.478696 -1.257663,2.214855 -1.257663,1.37608 0,-0.471737 -0.265343,-0.488287 -0.888603,-0.05538 -0.300152,0.208453 -0.412853,0.48212 -0.306719,0.744798 0.408668,1.011514 -1.427602,2.815774 -2.865733,2.815774 -0.593841,0 -1.092961,0.290502 -2.072334,1.206142 -0.709563,0.663376 -1.290102,1.319835 -1.290102,1.458792 0,0.138969 -0.137689,0.252661 -0.305965,0.252661 -0.168287,0 -0.600255,0.266408 -0.959941,0.592028 -0.999219,0.904606 -3.575601,2.021042 -6.212039,2.69192 -2.49488,0.634835 -3.926632,0.776958 -3.657281,0.363032 z M 53.559744,32.472619 c 0.254824,-0.267445 0.405719,-0.486257 0.335325,-0.486257 -0.0704,0 -0.336481,0.218812 -0.591318,0.486257 -0.254824,0.267444 -0.405719,0.486268 -0.335325,0.486268 0.07039,0 0.336481,-0.218824 0.591318,-0.486268 z M 24.82572,48.594895 c 0.246382,-0.06112 0.649554,-0.06112 0.895937,0 0.246382,0.06112 0.04481,0.111187 -0.447969,0.111187 -0.492764,0 -0.694351,-0.05009 -0.447968,-0.111187 z m -1.407898,-0.236554 c 0.175987,-0.06741 0.463969,-0.06741 0.639956,0 0.175987,0.06741 0.03195,0.12263 -0.319984,0.12263 -0.351975,0 -0.495959,-0.05517 -0.319972,-0.12263 z m -3.775738,-1.05464 c -0.211185,-0.129635 -0.268787,-0.235681 -0.127996,-0.235681 0.140789,0 0.428771,0.106024 0.639956,0.235681 0.211185,0.129623 0.268786,0.235681 0.127984,0.235681 -0.140777,0 -0.42876,-0.106024 -0.639944,-0.235681 z m -2.62382,-1.23047 C 16.06792,45.531667 15.29038,45.031002 15.29038,44.960635 c 0,-0.07039 0.374379,0.09125 0.831946,0.359061 0.457567,0.267841 1.350309,0.767789 1.983864,1.110996 0.633553,0.343217 1.036726,0.624739 0.895937,0.625622 -0.14079,9.8e-4 -1.033533,-0.441508 -1.983863,-0.983083 z m -4.320361,-3.571395 c -0.318404,-0.385627 -0.309349,-0.394222 0.09669,-0.09179 0.246383,0.183529 0.447969,0.375003 0.447969,0.425488 0,0.200101 -0.210206,0.07128 -0.544623,-0.333685 z M 15.926989,24.498181 C 11.86709,23.164766 9.3041129,20.298793 9.3351479,17.127047 9.3640369,14.172989 11.515823,11.5611 15.414426,9.7478257 c 1.303345,-0.606205 2.557365,-1.102181 2.786719,-1.102181 0.775736,0 0.423113,0.436576 -0.944942,1.1699 -0.749075,0.4015253 -2.132777,1.5208293 -3.074914,2.4873303 -1.430053,1.467055 -1.799797,2.02882 -2.238746,3.401435 -0.562687,1.759534 -0.454961,2.788899 0.469759,4.488701 0.620207,1.140034 2.396292,3.283716 2.720639,3.283716 0.326894,0 2.198161,0.900977 2.576466,1.240521 0.379177,0.340326 -0.353319,0.250288 -1.782418,-0.219067 z"
       style="fill:#a32728" />
    <path
       inkscape:connector-curvature="0"
       id="path3051"
       d="m 34.61705,56.78586 c 0.08702,-0.133716 0.299833,-0.243128 0.472943,-0.243128 0.173111,0 0.766622,-0.218823 1.318932,-0.486267 0.552299,-0.267445 1.12804,-0.486269 1.279418,-0.486269 0.411215,0 4.736163,-3.908356 4.736163,-4.279972 0,-0.519906 -1.848461,-0.87174 -3.118424,-0.59355 -1.774447,0.388706 -3.269991,0.321351 -3.462827,-0.155948 -0.105416,-0.260835 0.0036,-0.504052 0.298346,-0.668616 0.255191,-0.142256 1.110884,-0.709901 1.901548,-1.261438 0.790651,-0.551538 2.071119,-1.304213 2.845463,-1.672629 5.327291,-2.534572 8.641241,-6.118069 9.568285,-10.346518 0.420317,-1.917147 0.761679,-2.481516 1.992069,-3.293437 1.363857,-0.900018 3.102375,-3.119826 4.363411,-5.571387 0.606565,-1.179212 1.239801,-2.187394 1.407179,-2.240384 0.475384,-0.150508 1.355769,1.743823 1.355769,2.917198 0,1.342066 -0.843961,2.960116 -2.689994,5.157262 -0.783729,0.932785 -1.474095,1.917478 -1.534149,2.188188 -0.06001,0.270711 -0.152133,2.188056 -0.204617,4.260764 -0.0823,3.251479 -0.180173,3.982839 -0.713135,5.330322 -0.584856,1.478695 -1.257663,2.214854 -1.257663,1.37608 0,-0.471738 -0.265343,-0.488287 -0.888603,-0.05538 -0.300152,0.208453 -0.412853,0.48212 -0.306719,0.744798 0.408668,1.011514 -1.427602,2.815774 -2.865733,2.815774 -0.593841,0 -1.092961,0.290503 -2.072334,1.206143 -0.709563,0.663376 -1.290102,1.319834 -1.290102,1.458791 0,0.138969 -0.137689,0.252661 -0.305965,0.252661 -0.168287,0 -0.600255,0.266407 -0.959941,0.592028 -0.999219,0.904606 -3.575601,2.021042 -6.212039,2.69192 -2.49488,0.634834 -3.926632,0.776958 -3.657281,0.363032 z M 10.536791,19.898106 c -0.744029,-1.067627 -0.7973499,-3.359721 -0.113316,-4.870014 0.556827,-1.229411 1.887963,-2.762453 1.425197,-1.641362 -1.232938,2.98687 -1.417131,4.237 -0.889924,6.040322 0.342718,1.172316 0.187484,1.345607 -0.421981,0.471054 z"
       style="fill:#272829" />
  </g>
</svg>
