<?xml version="1.0" encoding="UTF-8" standalone="no"?>
<!-- Created with Inkscape (http://www.inkscape.org/) -->

<svg
   xmlns:osb="http://www.openswatchbook.org/uri/2009/osb"
   xmlns:dc="http://purl.org/dc/elements/1.1/"
   xmlns:cc="http://creativecommons.org/ns#"
   xmlns:rdf="http://www.w3.org/1999/02/22-rdf-syntax-ns#"
   xmlns:svg="http://www.w3.org/2000/svg"
   xmlns="http://www.w3.org/2000/svg"
   xmlns:xlink="http://www.w3.org/1999/xlink"
   xmlns:sodipodi="http://sodipodi.sourceforge.net/DTD/sodipodi-0.dtd"
   xmlns:inkscape="http://www.inkscape.org/namespaces/inkscape"
   width="468"
   height="200"
   id="svg4216"
   version="1.1"
   inkscape:version="0.48.5 r10040"
   sodipodi:docname="panic-6-banner.svg"
   inkscape:export-filename="/homelocal/srubio/ONGOING/panic/gui/icon/panic-6-banner.png"
   inkscape:export-xdpi="90"
   inkscape:export-ydpi="90">
  <defs
     id="defs4218">
    <linearGradient
       y2="517.23425"
       x2="194.8035"
       y1="517.23425"
       x1="139.36345"
       gradientTransform="matrix(1.2413203,0,0,1.1802714,-187.75258,-580.0399)"
       gradientUnits="userSpaceOnUse"
       id="linearGradient4146"
       xlink:href="#linearGradient5634-1-4"
       inkscape:collect="always" />
    <linearGradient
       id="linearGradient5634-1-4"
       osb:paint="solid">
      <stop
         style="stop-color:#030000;stop-opacity:1;"
         offset="0"
         id="stop5636-5-1" />
    </linearGradient>
    <linearGradient
       y2="517.23425"
       x2="194.8035"
       y1="517.23425"
       x1="139.36345"
       gradientTransform="matrix(1.2413203,0,0,1.1802714,-186.05673,-570.82898)"
       gradientUnits="userSpaceOnUse"
       id="linearGradient4262"
       xlink:href="#linearGradient5634-1-4"
       inkscape:collect="always" />
    <linearGradient
       inkscape:collect="always"
       xlink:href="#linearGradient5634-1-4"
       id="linearGradient4309"
       gradientUnits="userSpaceOnUse"
       gradientTransform="matrix(1.2413203,0,0,1.1802714,-186.05673,-570.82898)"
       x1="139.36345"
       y1="517.23425"
       x2="194.8035"
       y2="517.23425" />
    <linearGradient
       inkscape:collect="always"
       xlink:href="#linearGradient5634-1-4"
       id="linearGradient4335"
       gradientUnits="userSpaceOnUse"
       gradientTransform="matrix(2.1877177,0,0,2.1638309,-306.28089,-1097.2142)"
       x1="139.36345"
       y1="517.23425"
       x2="194.8035"
       y2="517.23425" />
    <linearGradient
       inkscape:collect="always"
       xlink:href="#linearGradient5634-1-4-7"
       id="linearGradient3898"
       gradientUnits="userSpaceOnUse"
       gradientTransform="matrix(1.2676922,0,0,1.2053836,-165.2402,-647.67311)"
       x1="139.36345"
       y1="517.23425"
       x2="194.8035"
       y2="517.23425" />
    <linearGradient
       id="linearGradient5634-1-4-7"
       osb:paint="solid">
      <stop
         style="stop-color:#030000;stop-opacity:1;"
         offset="0"
         id="stop5636-5-1-0" />
    </linearGradient>
    <linearGradient
       y2="517.23425"
       x2="194.8035"
       y1="517.23425"
       x1="139.36345"
       gradientTransform="matrix(1.2676922,0,0,1.2053836,-192.32562,-593.10802)"
       gradientUnits="userSpaceOnUse"
       id="linearGradient4146-3"
       xlink:href="#linearGradient5634-1-4-1"
       inkscape:collect="always" />
    <linearGradient
       id="linearGradient5634-1-4-1"
       osb:paint="solid">
      <stop
         style="stop-color:#030000;stop-opacity:1;"
         offset="0"
         id="stop5636-5-1-6" />
    </linearGradient>
    <linearGradient
       y2="517.23425"
       x2="194.8035"
       y1="517.23425"
       x1="139.36345"
       gradientTransform="matrix(1.2676922,0,0,1.2053836,-165.01598,-647.40741)"
       gradientUnits="userSpaceOnUse"
       id="linearGradient3927"
       xlink:href="#linearGradient5634-1-4-1"
       inkscape:collect="always" />
    <linearGradient
       inkscape:collect="always"
       xlink:href="#linearGradient5634-1-4-1"
       id="linearGradient4105"
       gradientUnits="userSpaceOnUse"
       gradientTransform="matrix(1.2676922,0,0,1.2053836,-165.01598,-647.40741)"
       x1="139.36345"
       y1="517.23425"
       x2="194.8035"
       y2="517.23425" />
    <linearGradient
       inkscape:collect="always"
       xlink:href="#linearGradient5634-1-4-7"
       id="linearGradient4107"
       gradientUnits="userSpaceOnUse"
       gradientTransform="matrix(1.2676922,0,0,1.2053836,-165.2402,-647.67311)"
       x1="139.36345"
       y1="517.23425"
       x2="194.8035"
       y2="517.23425" />
  </defs>
  <sodipodi:namedview
     id="base"
     pagecolor="#ffffff"
     bordercolor="#666666"
     borderopacity="1.0"
     inkscape:pageopacity="0.0"
     inkscape:pageshadow="2"
     inkscape:zoom="1.420482"
     inkscape:cx="114.14336"
     inkscape:cy="32.711224"
     inkscape:document-units="px"
     inkscape:current-layer="layer1"
     showgrid="false"
     inkscape:window-width="1482"
     inkscape:window-height="778"
     inkscape:window-x="137"
     inkscape:window-y="192"
     inkscape:window-maximized="0" />
  <metadata
     id="metadata4221">
    <rdf:RDF>
      <cc:Work
         rdf:about="">
        <dc:format>image/svg+xml</dc:format>
        <dc:type
           rdf:resource="http://purl.org/dc/dcmitype/StillImage" />
        <dc:title></dc:title>
      </cc:Work>
    </rdf:RDF>
  </metadata>
  <g
     id="layer1"
     inkscape:label="Layer 1"
     inkscape:groupmode="layer"
     transform="translate(0,140)">
    <rect
       style="fill:#ffffff;fill-opacity:1;stroke:#da0000;stroke-width:0;stroke-miterlimit:4;stroke-opacity:1;stroke-dasharray:none"
       id="rect4109"
       width="407.60812"
       height="169.66072"
       x="28.159456"
       y="14.851572"
       transform="translate(0,-140)" />
    <text
       xml:space="preserve"
       style="font-size:63.95875931px;font-style:normal;font-weight:normal;line-height:125%;letter-spacing:0px;word-spacing:0px;fill:#000000;fill-opacity:1;stroke:none;font-family:Sans"
       x="220.85274"
       y="-75.314651"
       id="text4311"
       sodipodi:linespacing="125%"><tspan
         sodipodi:role="line"
         id="tspan4313"
         x="220.85274"
         y="-75.314651"
         style="font-size:25.58350372px;font-style:normal;font-variant:normal;font-weight:500;font-stretch:normal;font-family:OmegaSerifCommon;-inkscape-font-specification:OmegaSerifCommon Medium">Programmable </tspan><tspan
         sodipodi:role="line"
         x="220.85274"
         y="-43.33527"
         id="tspan4315"
         style="font-size:25.58350372px;font-style:normal;font-variant:normal;font-weight:500;font-stretch:normal;font-family:OmegaSerifCommon;-inkscape-font-specification:OmegaSerifCommon Medium">Alarms and </tspan><tspan
         sodipodi:role="line"
         x="220.85274"
         y="-11.355889"
         style="font-size:25.58350372px;font-style:normal;font-variant:normal;font-weight:500;font-stretch:normal;font-family:OmegaSerifCommon;-inkscape-font-specification:OmegaSerifCommon Medium"
         id="tspan4321">Notification of </tspan><tspan
         sodipodi:role="line"
         x="220.85274"
         y="20.623489"
         style="font-size:25.58350372px;font-style:normal;font-variant:normal;font-weight:500;font-stretch:normal;font-family:OmegaSerifCommon;-inkscape-font-specification:OmegaSerifCommon Medium"
         id="tspan4323">Incidences</tspan></text>
    <g
       id="g4092"
       transform="matrix(3.1042125,0,0,3.1042125,-22.795102,53.610878)">
      <path
         sodipodi:nodetypes="cccccscc"
         id="path6257-9-7-4-5"
         d="m 51.841723,-7.9313786 -3.778427,-0.06162 0.100144,1.478846 -20.663395,0 0,-47.7527714 24.126692,-0.142854 c 14.146907,-0.08376 24.294998,8.9206 23.6238,24.256864 0.509891,17.71729 -15.08508,22.1592334 -23.408814,22.2215354 z"
         style="font-size:180px;font-style:normal;font-variant:normal;font-weight:bold;font-stretch:condensed;line-height:125%;letter-spacing:0px;word-spacing:0px;fill:#ffff00;fill-opacity:1;stroke:url(#linearGradient4105);stroke-width:0.54699999;stroke-linecap:butt;stroke-linejoin:miter;stroke-miterlimit:4;stroke-opacity:1;stroke-dasharray:none;font-family:Open Sans Condensed;-inkscape-font-specification:'Open Sans Condensed, Bold Condensed'"
         inkscape:connector-curvature="0" />
      <path
         inkscape:connector-curvature="0"
         id="path6257-9-7-4-5-7"
         d="m 71.898926,-44.303849 c 0.456154,2.283768 0.656172,4.721017 0.53125,7.343751 0.626323,19.996928 -18.525578,25.02344 -28.75,25.09375 l -4.65625,-0.0625 0.0625,5.1562504 8.84375,0 -0.09375,-1.5 3.78125,0.0625 c 8.323734,-0.0623 23.916141,-4.5014604 23.40625,-22.2187504 0.239936,-5.482317 -0.911357,-10.136867 -3.125,-13.875001 z"
         style="font-size:180px;font-style:normal;font-variant:normal;font-weight:bold;font-stretch:condensed;line-height:125%;letter-spacing:0px;word-spacing:0px;fill:#ffd500;fill-opacity:1;stroke:url(#linearGradient4107);stroke-width:0;stroke-linecap:butt;stroke-linejoin:miter;stroke-miterlimit:4;stroke-opacity:1;stroke-dasharray:none;font-family:Open Sans Condensed;-inkscape-font-specification:'Open Sans Condensed, Bold Condensed'" />
      <ellipse
         transform="matrix(1.3148644,0,0,1.3165069,-790.44622,-855.43086)"
         sodipodi:ry="15.981342"
         sodipodi:rx="16.210533"
         sodipodi:cy="626.29242"
         sodipodi:cx="639.57062"
         ry="15.981342"
         rx="16.210533"
         cy="626.29242"
         cx="639.57062"
         id="path5771-7-1-4-8-2-8-6-38"
         style="fill:#ff0000;fill-opacity:1;stroke:#bb0000;stroke-width:1.09448659;stroke-miterlimit:4;stroke-opacity:1;stroke-dasharray:none"
         d="m 655.78115,626.29242 c 0,8.82625 -7.2577,15.98134 -16.21053,15.98134 -8.95283,0 -16.21054,-7.15509 -16.21054,-15.98134 0,-8.82625 7.25771,-15.98134 16.21054,-15.98134 8.95283,0 16.21053,7.15509 16.21053,15.98134 z" />
      <g
         style="fill:#ffffff;stroke:#000000;stroke-width:0.02499865;stroke-miterlimit:4;stroke-opacity:1;stroke-dasharray:none"
         transform="matrix(1.3956522,0,0,1.527057,-217.53734,-1134.2979)"
         id="g3738-8-5-7-1-8">
        <g
           style="stroke:#000000;stroke-width:0.02499865;stroke-miterlimit:4;stroke-opacity:1;stroke-dasharray:none"
           id="g3846-1-3-7-6">
          <path
             d="m 183.86928,721.36368 q 0,0.97035 -0.82457,1.49093 -0.81757,0.5164 -2.36888,0.5164 l -0.47517,0 0,2.20723 -1.9007,0 0,-6.08862 2.59249,0 q 2.97683,0 2.97683,1.87406 z m -3.66862,1.02449 0.36336,0 q 0.69878,0 1.04119,-0.22905 0.34242,-0.22906 0.34242,-0.74962 0,-0.47893 -0.31446,-0.70798 -0.31445,-0.23322 -0.97131,-0.23322 l -0.4612,0 0,1.91987 z"
             style="font-size:180px;font-style:normal;font-variant:normal;font-weight:bold;font-stretch:condensed;line-height:125%;letter-spacing:0px;word-spacing:0px;fill:#ffffff;fill-opacity:1;stroke:#000000;stroke-width:0.02499865;stroke-miterlimit:4;stroke-opacity:1;stroke-dasharray:none;font-family:Open Sans Condensed;-inkscape-font-specification:'Open Sans Condensed, Bold Condensed'"
             id="path3359-81-3-3-8-2-2-5-1"
             inkscape:connector-curvature="0" />
          <path
             d="m 188.4269,725.57824 -0.58697,-1.53673 -2.66238,0 -0.58697,1.53673 -1.9007,0 2.5296,-6.11361 2.57852,0 2.53658,6.11361 -1.90768,0 z m -0.94335,-2.54039 -0.54506,-1.41596 q -0.0489,-0.1291 -0.22361,-0.64552 -0.16771,-0.52057 -0.20266,-0.69548 -0.0908,0.35816 -0.23059,0.79128 -0.13976,0.42895 -0.72673,1.96568 l 1.92865,0 z"
             style="font-size:180px;font-style:normal;font-variant:normal;font-weight:bold;font-stretch:condensed;line-height:125%;letter-spacing:0px;word-spacing:0px;fill:#ffffff;fill-opacity:1;stroke:#000000;stroke-width:0.02499865;stroke-miterlimit:4;stroke-opacity:1;stroke-dasharray:none;font-family:Open Sans Condensed;-inkscape-font-specification:'Open Sans Condensed, Bold Condensed'"
             id="path3361-2-9-5-2-3-2-5-5"
             inkscape:connector-curvature="0" />
          <path
             d="m 195.01144,725.5932 -2.75471,-4.42525 c 0.002,0.30948 -0.008,0.84728 0.0208,1.08279 l 0,3.3275 -1.69798,0 0,-6.08862 2.33395,0 2.72675,4.37945 c -0.0321,-0.4251 -0.0264,-0.82063 -0.056,-1.04115 l 0,-3.32334 1.74696,0 0,6.08862 c -0.75625,0.003 -1.98235,-0.002 -2.31977,0 z"
             style="font-size:180px;font-style:normal;font-variant:normal;font-weight:bold;font-stretch:condensed;line-height:125%;letter-spacing:0px;word-spacing:0px;fill:#ffffff;fill-opacity:1;stroke:#000000;stroke-width:0.02499865;stroke-miterlimit:4;stroke-opacity:1;stroke-dasharray:none;font-family:Open Sans Condensed;-inkscape-font-specification:'Open Sans Condensed, Bold Condensed'"
             id="path3363-4-4-3-7-3-2-9-9"
             inkscape:connector-curvature="0"
             sodipodi:nodetypes="ccccccccccccc" />
          <path
             d="m 197.96044,725.57824 0,-6.08862 1.78888,0 0,6.08862 -1.78888,0 z"
             style="font-size:180px;font-style:normal;font-variant:normal;font-weight:bold;font-stretch:condensed;line-height:125%;letter-spacing:0px;word-spacing:0px;fill:#ffffff;fill-opacity:1;stroke:#000000;stroke-width:0.02499865;stroke-miterlimit:4;stroke-opacity:1;stroke-dasharray:none;font-family:Open Sans Condensed;-inkscape-font-specification:'Open Sans Condensed, Bold Condensed'"
             id="path3365-02-4-4-7-0-4-8-2"
             inkscape:connector-curvature="0" />
          <path
             d="m 203.92445,720.36537 q -0.81757,0 -1.29275,0.57055 -0.46819,0.57055 -0.46819,1.58671 0,2.11561 1.85178,2.11561 0.8106,0 1.69805,-0.30819 l 0,1.00784 q -0.7477,0.29569 -1.91467,0.29569 -1.72601,0 -2.65539,-0.81627 -0.9224,-0.82041 -0.9224,-2.30302 0,-1.48258 0.95036,-2.31134 0.95733,-0.82874 2.65538,-0.82874 0.55903,0 1.06914,0.0916 0.5171,0.0916 1.10408,0.32066 l -0.62891,0.92038 q -0.31445,-0.1291 -0.67083,-0.23322 -0.35637,-0.10828 -0.77565,-0.10828 z"
             style="font-size:180px;font-style:normal;font-variant:normal;font-weight:bold;font-stretch:condensed;line-height:125%;letter-spacing:0px;word-spacing:0px;fill:#ffffff;fill-opacity:1;stroke:#000000;stroke-width:0.02499865;stroke-miterlimit:4;stroke-opacity:1;stroke-dasharray:none;font-family:Open Sans Condensed;-inkscape-font-specification:'Open Sans Condensed, Bold Condensed'"
             id="path3367-5-9-7-9-0-3-9-0"
             inkscape:connector-curvature="0" />
        </g>
      </g>
      <path
         inkscape:connector-curvature="0"
         id="path5771-7-1-4-8-2-8-6-3"
         d="m 71.269461,-29.928848 c -3.439706,9.526334 -13.530066,16.433557 -25.415561,16.433557 -2.570196,0 -5.049776,-0.342589 -7.401403,-0.944457 3.40133,2.446658 7.535126,3.903757 12.019634,3.903757 10.917632,0 19.888922,-8.538755 20.79733,-19.392857 z"
         style="fill:#d20000;fill-opacity:1;stroke:#da0000;stroke-width:0;stroke-miterlimit:4;stroke-opacity:1;stroke-dasharray:none" />
    </g>
    <rect
       style="fill:none;fill-opacity:1;stroke:#000000;stroke-width:0.9;stroke-miterlimit:4;stroke-opacity:1;stroke-dasharray:none"
       id="rect4111"
       width="461.11111"
       height="193.59627"
       x="2.1119592"
       y="2.8838031"
       transform="translate(0,-140)" />
  </g>
</svg>
